<svg width="422" height="88" xmlns="http://www.w3.org/2000/svg" xmlns:xlink="http://www.w3.org/1999/xlink" xml:space="preserve" overflow="hidden"><g transform="translate(-320 -1244)"><g><g><g><g><path d="M147.12 53.4626 147.12 72.6218 160.254 72.6218 160.254 69.3807 150.988 69.3807 150.988 64.8454 158.986 64.8454 158.986 61.6043 150.988 61.6043 150.988 53.4626 147.12 53.4626" fill="#264CA4" fill-rule="nonzero" fill-opacity="1" transform="matrix(1.00329 0 0 -1 321 1331.96)"/><path d="M172.552 53.4626 172.552 55.5404C172.046 54.7997 171.382 54.2162 170.559 53.7892 169.736 53.3621 168.866 53.1488 167.952 53.1488 167.019 53.1488 166.183 53.3535 165.442 53.7628 164.702 54.1721 164.166 54.7474 163.835 55.4881 163.504 56.2285 163.338 57.2526 163.338 58.5592L163.338 67.3415 167.01 67.3415 167.01 60.9639C167.01 59.0121 167.078 57.8163 167.213 57.3766 167.348 56.9364 167.594 56.588 167.952 56.3311 168.309 56.0741 168.762 55.9456 169.311 55.9456 169.938 55.9456 170.5 56.1173 170.997 56.462 171.493 56.8058 171.833 57.2324 172.016 57.7426 172.199 58.252 172.291 59.5001 172.291 61.4869L172.291 67.3415 175.963 67.3415 175.963 53.4626 172.552 53.4626" fill="#264CA4" fill-rule="nonzero" fill-opacity="1" transform="matrix(1.00329 0 0 -1 321 1331.96)"/><path d="M192.39 53.4626 188.718 53.4626 188.718 60.546C188.718 62.0445 188.64 63.0138 188.483 63.4535 188.326 63.8933 188.071 64.2355 187.719 64.4797 187.365 64.7235 186.941 64.8454 186.444 64.8454 185.808 64.8454 185.237 64.6712 184.732 64.3228 184.227 63.974 183.88 63.5124 183.693 62.9376 183.506 62.3623 183.412 61.2995 183.412 59.7488L183.412 53.4626 179.74 53.4626 179.74 67.3415 183.151 67.3415 183.151 65.3028C184.361 66.8713 185.886 67.6553 187.725 67.6553 188.535 67.6553 189.276 67.5096 189.947 67.2176 190.618 66.9257 191.125 66.553 191.469 66.1 191.813 65.6471 192.053 65.1332 192.188 64.5579 192.323 63.9831 192.39 63.1595 192.39 62.0881L192.39 53.4626" fill="#264CA4" fill-rule="nonzero" fill-opacity="1" transform="matrix(1.00329 0 0 -1 321 1331.96)"/><path d="M199.043 60.7025C199.043 59.2213 199.247 58.1499 199.657 57.4877 200.249 56.5291 201.077 56.0502 202.14 56.0502 202.985 56.0502 203.704 56.4097 204.296 57.1283 204.889 57.8472 205.185 58.9207 205.185 60.3496 205.185 61.9444 204.898 63.092 204.323 63.7933 203.747 64.4945 203.011 64.8454 202.114 64.8454 201.242 64.8454 200.513 64.4991 199.925 63.8069 199.337 63.1138 199.043 62.079 199.043 60.7025ZM208.844 53.4626 205.433 53.4626 205.433 55.5013C204.867 54.7082 204.198 54.1177 203.427 53.7303 202.656 53.3428 201.878 53.1488 201.094 53.1488 199.5 53.1488 198.134 53.7912 196.997 55.0764 195.86 56.3615 195.292 58.154 195.292 60.4542 195.292 62.8066 195.845 64.595 196.952 65.8192 198.058 67.043 199.456 67.6553 201.147 67.6553 202.697 67.6553 204.039 67.0105 205.172 65.7212L205.172 72.6218 208.844 72.6218 208.844 53.4626" fill="#264CA4" fill-rule="nonzero" fill-opacity="1" transform="matrix(1.00329 0 0 -1 321 1331.96)"/><path d="M220.711 61.5915C220.685 62.6543 220.411 63.4622 219.888 64.016 219.365 64.5686 218.729 64.8454 217.98 64.8454 217.178 64.8454 216.516 64.5534 215.993 63.9699 215.47 63.386 215.213 62.5933 215.222 61.5915ZM220.502 57.8797 224.161 57.2654C223.691 55.9238 222.948 54.9022 221.933 54.2009 220.918 53.4993 219.648 53.1488 218.123 53.1488 215.71 53.1488 213.924 53.937 212.765 55.5141 211.85 56.7774 211.393 58.3718 211.393 60.2973 211.393 62.5975 211.995 64.399 213.197 65.7014 214.399 67.0039 215.919 67.6553 217.758 67.6553 219.822 67.6553 221.451 66.9734 222.646 65.61 223.839 64.2462 224.41 62.1577 224.357 59.3436L215.157 59.3436C215.183 58.2545 215.479 57.407 216.046 56.8017 216.612 56.1956 217.318 55.8933 218.163 55.8933 218.738 55.8933 219.221 56.0502 219.614 56.3636 220.006 56.6774 220.301 57.1826 220.502 57.8797" fill="#264CA4" fill-rule="nonzero" fill-opacity="1" transform="matrix(1.00329 0 0 -1 321 1331.96)"/><path d="M230.278 60.7025C230.278 59.2213 230.483 58.1499 230.892 57.4877 231.485 56.5291 232.312 56.0502 233.375 56.0502 234.22 56.0502 234.939 56.4097 235.532 57.1283 236.124 57.8472 236.42 58.9207 236.42 60.3496 236.42 61.9444 236.133 63.092 235.558 63.7933 234.983 64.4945 234.247 64.8454 233.349 64.8454 232.478 64.8454 231.748 64.4991 231.16 63.8069 230.572 63.1138 230.278 62.079 230.278 60.7025ZM240.08 53.4626 236.669 53.4626 236.669 55.5013C236.102 54.7082 235.434 54.1177 234.662 53.7303 233.892 53.3428 233.114 53.1488 232.33 53.1488 230.735 53.1488 229.37 53.7912 228.233 55.0764 227.096 56.3615 226.527 58.154 226.527 60.4542 226.527 62.8066 227.08 64.595 228.187 65.8192 229.293 67.043 230.692 67.6553 232.382 67.6553 233.933 67.6553 235.275 67.0105 236.408 65.7212L236.408 72.6218 240.08 72.6218 240.08 53.4626" fill="#264CA4" fill-rule="nonzero" fill-opacity="1" transform="matrix(1.00329 0 0 -1 321 1331.96)"/><path d="M254.626 60.7025C254.626 59.265 254.852 58.2022 255.305 57.5137 255.941 56.5378 256.786 56.0502 257.841 56.0502 258.651 56.0502 259.341 56.3965 259.912 57.0891 260.483 57.7817 260.768 58.8729 260.768 60.3628 260.768 61.9485 260.481 63.092 259.906 63.7933 259.331 64.4945 258.595 64.8454 257.697 64.8454 256.817 64.8454 256.085 64.5036 255.501 63.8196 254.918 63.1357 254.626 62.0967 254.626 60.7025ZM250.98 53.4626 250.98 72.6218 254.652 72.6218 254.652 65.7212C255.784 67.0105 257.126 67.6553 258.677 67.6553 260.367 67.6553 261.766 67.043 262.872 65.8192 263.979 64.595 264.532 62.8371 264.532 60.546 264.532 58.1758 263.968 56.3508 262.84 55.0698 261.711 53.7892 260.341 53.1488 258.73 53.1488 257.937 53.1488 257.155 53.3469 256.383 53.7434 255.612 54.14 254.948 54.7255 254.391 55.5013L254.391 53.4626 250.98 53.4626" fill="#264CA4" fill-rule="nonzero" fill-opacity="1" transform="matrix(1.00329 0 0 -1 321 1331.96)"/><path d="M265.747 67.3415 269.655 67.3415 272.975 57.4877 276.216 67.3415 280.019 67.3415 275.118 53.9852 274.242 51.5672C273.92 50.7572 273.612 50.1388 273.321 49.7117 273.029 49.2847 272.694 48.9384 272.315 48.6728 271.936 48.4068 271.469 48.2001 270.916 48.0519 270.363 47.9036 269.738 47.8295 269.041 47.8295 268.335 47.8295 267.642 47.9036 266.963 48.0519L266.636 50.9269C267.211 50.8137 267.729 50.7572 268.191 50.7572 269.045 50.7572 269.677 51.0076 270.086 51.5083 270.496 52.0095 270.809 52.6477 271.027 53.4231L265.747 67.3415" fill="#264CA4" fill-rule="nonzero" fill-opacity="1" transform="matrix(1.00329 0 0 -1 321 1331.96)"/><path d="M153.432 35.223 153.432 32.2957 150.922 32.2957 150.922 26.7021C150.922 25.5692 150.946 24.9096 150.994 24.7219 151.042 24.5345 151.151 24.3801 151.321 24.2586 151.491 24.1362 151.698 24.0749 151.942 24.0749 152.282 24.0749 152.774 24.1927 153.419 24.4282L153.732 21.5792C152.878 21.2131 151.911 21.0302 150.831 21.0302 150.169 21.0302 149.572 21.141 149.041 21.3633 148.509 21.5853 148.119 21.8732 147.871 22.2261 147.622 22.5785 147.45 23.0563 147.354 23.6571 147.276 24.084 147.237 24.9463 147.237 26.245L147.237 32.2957 145.551 32.2957 145.551 35.223 147.237 35.223 147.237 37.9806 150.922 40.1239 150.922 35.223 153.432 35.223" fill="#264CA4" fill-rule="nonzero" fill-opacity="1" transform="matrix(1.00329 0 0 -1 321 1331.96)"/><path d="M159.64 40.5032 159.64 33.459C160.824 34.8442 162.24 35.5368 163.887 35.5368 164.732 35.5368 165.495 35.3798 166.174 35.0665 166.854 34.7527 167.365 34.3516 167.71 33.8641 168.054 33.3758 168.289 32.836 168.415 32.2434 168.541 31.6508 168.605 30.7317 168.605 29.4861L168.605 21.3435 164.933 21.3435 164.933 28.6753C164.933 30.1305 164.863 31.0541 164.723 31.4462 164.584 31.8385 164.338 32.15 163.985 32.3804 163.632 32.6114 163.19 32.7272 162.658 32.7272 162.049 32.7272 161.504 32.5789 161.024 32.2825 160.546 31.9864 160.195 31.5397 159.973 30.9429 159.751 30.3463 159.64 29.4639 159.64 28.2965L159.64 21.3435 155.967 21.3435 155.967 40.5032 159.64 40.5032" fill="#264CA4" fill-rule="nonzero" fill-opacity="1" transform="matrix(1.00329 0 0 -1 321 1331.96)"/><path d="M180.576 29.4729C180.55 30.5357 180.275 31.3441 179.753 31.8971 179.23 32.4501 178.594 32.7272 177.844 32.7272 177.043 32.7272 176.38 32.4348 175.858 31.8514 175.335 31.2675 175.078 30.4744 175.087 29.4729ZM180.367 25.7611 184.026 25.1472C183.556 23.8052 182.813 22.7831 181.798 22.082 180.783 21.3807 179.513 21.0302 177.988 21.0302 175.575 21.0302 173.788 21.8189 172.63 23.3955 171.715 24.6588 171.258 26.2532 171.258 28.1792 171.258 30.4793 171.859 32.2804 173.061 33.5828 174.264 34.8853 175.784 35.5368 177.622 35.5368 179.687 35.5368 181.316 34.8548 182.51 33.4914 183.704 32.1281 184.274 30.0391 184.222 27.225L175.022 27.225C175.048 26.1354 175.344 25.2881 175.91 24.6831 176.477 24.0774 177.183 23.7748 178.028 23.7748 178.603 23.7748 179.086 23.9316 179.478 24.245 179.87 24.5588 180.166 25.064 180.367 25.7611" fill="#264CA4" fill-rule="nonzero" fill-opacity="1" transform="matrix(1.00329 0 0 -1 321 1331.96)"/><path d="M194.677 21.3435 194.677 40.5032 208.884 40.5032 208.884 37.2621 198.546 37.2621 198.546 33.0142 208.165 33.0142 208.165 29.7862 198.546 29.7862 198.546 24.5719 209.25 24.5719 209.25 21.3435 194.677 21.3435" fill="#264CA4" fill-rule="nonzero" fill-opacity="1" transform="matrix(1.00329 0 0 -1 321 1331.96)"/><path d="M221.639 21.3435 221.639 23.4219C221.134 22.681 220.47 22.0971 219.647 21.6702 218.823 21.2435 217.954 21.0302 217.039 21.0302 216.107 21.0302 215.27 21.235 214.53 21.6447 213.789 22.054 213.253 22.6287 212.923 23.3696 212.591 24.11 212.425 25.1337 212.425 26.4406L212.425 35.223 216.098 35.223 216.098 28.8455C216.098 26.8935 216.165 25.6981 216.301 25.258 216.436 24.8177 216.681 24.4693 217.039 24.2125 217.396 23.9551 217.849 23.8271 218.398 23.8271 219.026 23.8271 219.587 23.9992 220.084 24.3434 220.581 24.6873 220.921 25.1142 221.103 25.6241 221.287 26.1333 221.378 27.3815 221.378 29.3684L221.378 35.223 225.051 35.223 225.051 21.3435 221.639 21.3435" fill="#264CA4" fill-rule="nonzero" fill-opacity="1" transform="matrix(1.00329 0 0 -1 321 1331.96)"/><path d="M232.369 21.3435 228.697 21.3435 228.697 35.223 232.107 35.223 232.107 33.2497C232.691 34.182 233.216 34.796 233.682 35.0924 234.148 35.3885 234.678 35.5368 235.27 35.5368 236.107 35.5368 236.912 35.3061 237.688 34.8442L236.551 31.6422C235.932 32.0428 235.357 32.2434 234.826 32.2434 234.312 32.2434 233.876 32.1017 233.519 31.8188 233.162 31.535 232.881 31.0232 232.676 30.283 232.471 29.5425 232.369 27.9913 232.369 25.6307L232.369 21.3435" fill="#264CA4" fill-rule="nonzero" fill-opacity="1" transform="matrix(1.00329 0 0 -1 321 1331.96)"/><path d="M242.184 28.2837C242.184 26.9067 242.511 25.8525 243.164 25.1205 243.818 24.3888 244.623 24.0227 245.582 24.0227 246.54 24.0227 247.344 24.3888 247.993 25.1205 248.642 25.8525 248.967 26.9157 248.967 28.3092 248.967 29.6685 248.642 30.7141 247.993 31.4462 247.344 32.1779 246.54 32.5439 245.582 32.5439 244.623 32.5439 243.818 32.1779 243.164 31.4462 242.511 30.7141 242.184 29.6603 242.184 28.2837ZM238.42 28.4793C238.42 29.6989 238.721 30.88 239.322 32.021 239.923 33.1628 240.774 34.0342 241.877 34.6349 242.979 35.2365 244.21 35.5368 245.569 35.5368 247.668 35.5368 249.389 34.8548 250.731 33.4914 252.073 32.1281 252.744 30.4047 252.744 28.3228 252.744 26.2228 252.066 24.4822 250.711 23.1015 249.357 21.7204 247.651 21.0302 245.595 21.0302 244.323 21.0302 243.11 21.3176 241.955 21.8925 240.801 22.4677 239.923 23.3108 239.322 24.4217 238.721 25.5323 238.42 26.8848 238.42 28.4793" fill="#264CA4" fill-rule="nonzero" fill-opacity="1" transform="matrix(1.00329 0 0 -1 321 1331.96)"/><path d="M259.147 28.5184C259.147 26.959 259.456 25.8068 260.075 25.0619 260.694 24.317 261.447 23.9448 262.336 23.9448 263.19 23.9448 263.9 24.2866 264.466 24.9705 265.033 25.6542 265.316 26.7763 265.316 28.336 265.316 29.7908 265.024 30.8709 264.441 31.5772 263.857 32.2825 263.134 32.6354 262.271 32.6354 261.374 32.6354 260.629 32.2891 260.036 31.5964 259.444 30.9038 259.147 29.8778 259.147 28.5184ZM255.514 35.223 258.938 35.223 258.938 33.1842C259.383 33.8814 259.984 34.4475 260.742 34.8833 261.5 35.3189 262.34 35.5368 263.264 35.5368 264.876 35.5368 266.244 34.9052 267.368 33.6417 268.492 32.3784 269.054 30.6185 269.054 28.3616 269.054 26.0441 268.487 24.2425 267.355 22.9578 266.222 21.6726 264.85 21.0302 263.238 21.0302 262.471 21.0302 261.776 21.1827 261.153 21.4878 260.531 21.7925 259.875 22.3154 259.187 23.0563L259.187 16.0638 255.514 16.0638 255.514 35.223" fill="#264CA4" fill-rule="nonzero" fill-opacity="1" transform="matrix(1.00329 0 0 -1 321 1331.96)"/><path d="M280.214 29.4729C280.189 30.5357 279.914 31.3441 279.391 31.8971 278.869 32.4501 278.233 32.7272 277.483 32.7272 276.681 32.7272 276.019 32.4348 275.496 31.8514 274.974 31.2675 274.717 30.4744 274.725 29.4729ZM280.006 25.7611 283.665 25.1472C283.194 23.8052 282.452 22.7831 281.437 22.082 280.421 21.3807 279.151 21.0302 277.627 21.0302 275.213 21.0302 273.427 21.8189 272.269 23.3955 271.354 24.6588 270.896 26.2532 270.896 28.1792 270.896 30.4793 271.498 32.2804 272.7 33.5828 273.902 34.8853 275.423 35.5368 277.261 35.5368 279.326 35.5368 280.955 34.8548 282.149 33.4914 283.342 32.1281 283.913 30.0391 283.861 27.225L274.66 27.225C274.687 26.1354 274.982 25.2881 275.549 24.6831 276.115 24.0774 276.821 23.7748 277.666 23.7748 278.241 23.7748 278.725 23.9316 279.117 24.245 279.509 24.5588 279.805 25.064 280.006 25.7611" fill="#264CA4" fill-rule="nonzero" fill-opacity="1" transform="matrix(1.00329 0 0 -1 321 1331.96)"/><path d="M294.512 28.009C294.042 27.8522 293.297 27.6648 292.277 27.4473 291.258 27.2292 290.592 27.0158 290.278 26.8067 289.799 26.4669 289.559 26.0359 289.559 25.5128 289.559 24.9986 289.751 24.5543 290.134 24.1795 290.518 23.8052 291.005 23.6178 291.598 23.6178 292.26 23.6178 292.892 23.8353 293.493 24.2714 293.937 24.6021 294.229 25.0076 294.369 25.4865 294.464 25.8002 294.512 26.397 294.512 27.2773ZM289.598 30.9886 286.266 31.5899C286.64 32.9313 287.285 33.9246 288.2 34.5699 289.115 35.2143 290.474 35.5368 292.277 35.5368 293.915 35.5368 295.135 35.3428 295.937 34.9554 296.738 34.5674 297.303 34.075 297.629 33.4783 297.956 32.8816 298.119 31.7863 298.119 30.1914L298.08 25.905C298.08 24.6852 298.139 23.7854 298.257 23.206 298.374 22.6266 298.594 22.0058 298.917 21.3435L295.283 21.3435C295.187 21.5874 295.07 21.9493 294.931 22.4287 294.87 22.6461 294.826 22.7897 294.8 22.8597 294.173 22.2499 293.502 21.7925 292.787 21.4878 292.073 21.1827 291.311 21.0302 290.5 21.0302 289.071 21.0302 287.945 21.4177 287.122 22.1932 286.298 22.9689 285.887 23.949 285.887 25.1337 285.887 25.9181 286.074 26.6172 286.449 27.2312 286.823 27.8456 287.348 28.3162 288.023 28.6428 288.699 28.9698 289.672 29.2546 290.945 29.4988 292.661 29.8208 293.85 30.122 294.512 30.4007L294.512 30.7663C294.512 31.4725 294.338 31.9757 293.99 32.2759 293.641 32.5768 292.983 32.7272 292.016 32.7272 291.363 32.7272 290.853 32.5982 290.487 32.3414 290.121 32.084 289.825 31.6335 289.598 30.9886" fill="#264CA4" fill-rule="nonzero" fill-opacity="1" transform="matrix(1.00329 0 0 -1 321 1331.96)"/><path d="M314.364 21.3435 310.692 21.3435 310.692 28.4274C310.692 29.9254 310.614 30.8952 310.457 31.3349 310.3 31.7747 310.045 32.117 309.692 32.3612 309.339 32.6048 308.915 32.7272 308.418 32.7272 307.782 32.7272 307.211 32.5526 306.706 32.2041 306.201 31.8559 305.854 31.3938 305.667 30.8186 305.48 30.2437 305.386 29.181 305.386 27.6297L305.386 21.3435 301.713 21.3435 301.713 35.223 305.125 35.223 305.125 33.1842C306.335 34.7527 307.86 35.5368 309.699 35.5368 310.509 35.5368 311.25 35.3909 311.921 35.099 312.591 34.807 313.099 34.4343 313.443 33.9819 313.787 33.5284 314.027 33.0142 314.162 32.4393 314.297 31.8641 314.364 31.0409 314.364 29.9695L314.364 21.3435" fill="#264CA4" fill-rule="nonzero" fill-opacity="1" transform="matrix(1.00329 0 0 -1 321 1331.96)"/><path d="M325.526 40.5032 329.394 40.5032 329.394 30.1264C329.394 28.4793 329.442 27.4124 329.538 26.9244 329.703 26.1404 330.097 25.5108 330.72 25.0355 331.343 24.5609 332.195 24.3236 333.276 24.3236 334.373 24.3236 335.201 24.548 335.759 24.9965 336.316 25.4449 336.652 25.9963 336.765 26.6498 336.878 27.3032 336.935 28.3883 336.935 29.904L336.935 40.5032 340.803 40.5032 340.803 30.4398C340.803 28.1396 340.699 26.5147 340.49 25.5652 340.281 24.6156 339.895 23.8134 339.333 23.1603 338.771 22.5068 338.02 21.9864 337.079 21.599 336.138 21.211 334.909 21.017 333.393 21.017 331.563 21.017 330.176 21.2284 329.231 21.6508 328.285 22.0733 327.538 22.6221 326.989 23.2975 326.44 23.9728 326.079 24.6807 325.904 25.4214 325.652 26.5192 325.526 28.1396 325.526 30.283L325.526 40.5032" fill="#264CA4" fill-rule="nonzero" fill-opacity="1" transform="matrix(1.00329 0 0 -1 321 1331.96)"/><path d="M357.479 21.3435 353.807 21.3435 353.807 28.4274C353.807 29.9254 353.729 30.8952 353.572 31.3349 353.415 31.7747 353.16 32.117 352.807 32.3612 352.454 32.6048 352.03 32.7272 351.533 32.7272 350.897 32.7272 350.326 32.5526 349.821 32.2041 349.315 31.8559 348.969 31.3938 348.782 30.8186 348.594 30.2437 348.501 29.181 348.501 27.6297L348.501 21.3435 344.828 21.3435 344.828 35.223 348.24 35.223 348.24 33.1842C349.45 34.7527 350.975 35.5368 352.814 35.5368 353.624 35.5368 354.364 35.3909 355.035 35.099 355.706 34.807 356.214 34.4343 356.558 33.9819 356.902 33.5284 357.142 33.0142 357.277 32.4393 357.411 31.8641 357.479 31.0409 357.479 29.9695L357.479 21.3435" fill="#264CA4" fill-rule="nonzero" fill-opacity="1" transform="matrix(1.00329 0 0 -1 321 1331.96)"/><path d="M361.204 21.3435 361.204 35.223 364.876 35.223 364.876 21.3435ZM361.204 37.1053 361.204 40.5032 364.876 40.5032 364.876 37.1053 361.204 37.1053" fill="#264CA4" fill-rule="nonzero" fill-opacity="1" transform="matrix(1.00329 0 0 -1 321 1331.96)"/><path d="M371.555 28.2837C371.555 26.9067 371.882 25.8525 372.535 25.1205 373.189 24.3888 373.994 24.0227 374.953 24.0227 375.911 24.0227 376.715 24.3888 377.364 25.1205 378.013 25.8525 378.337 26.9157 378.337 28.3092 378.337 29.6685 378.013 30.7141 377.364 31.4462 376.715 32.1779 375.911 32.5439 374.953 32.5439 373.994 32.5439 373.189 32.1779 372.535 31.4462 371.882 30.7141 371.555 29.6603 371.555 28.2837ZM367.791 28.4793C367.791 29.6989 368.091 30.88 368.693 32.021 369.294 33.1628 370.145 34.0342 371.248 34.6349 372.349 35.2365 373.58 35.5368 374.94 35.5368 377.039 35.5368 378.76 34.8548 380.102 33.4914 381.443 32.1281 382.114 30.4047 382.114 28.3228 382.114 26.2228 381.437 24.4822 380.082 23.1015 378.728 21.7204 377.022 21.0302 374.966 21.0302 373.694 21.0302 372.48 21.3176 371.326 21.8925 370.171 22.4677 369.294 23.3108 368.693 24.4217 368.091 25.5323 367.791 26.8848 367.791 28.4793" fill="#264CA4" fill-rule="nonzero" fill-opacity="1" transform="matrix(1.00329 0 0 -1 321 1331.96)"/><path d="M397.614 21.3435 393.942 21.3435 393.942 28.4274C393.942 29.9254 393.864 30.8952 393.707 31.3349 393.55 31.7747 393.295 32.117 392.942 32.3612 392.589 32.6048 392.165 32.7272 391.668 32.7272 391.032 32.7272 390.461 32.5526 389.956 32.2041 389.451 31.8559 389.104 31.3938 388.917 30.8186 388.73 30.2437 388.636 29.181 388.636 27.6297L388.636 21.3435 384.963 21.3435 384.963 35.223 388.374 35.223 388.374 33.1842C389.585 34.7527 391.11 35.5368 392.949 35.5368 393.759 35.5368 394.499 35.3909 395.17 35.099 395.841 34.807 396.349 34.4343 396.693 33.9819 397.037 33.5284 397.277 33.0142 397.412 32.4393 397.547 31.8641 397.614 31.0409 397.614 29.9695L397.614 21.3435" fill="#264CA4" fill-rule="nonzero" fill-opacity="1" transform="matrix(1.00329 0 0 -1 321 1331.96)"/><path d="M11.7752 85.3555 133.033 85.3555 133.033 2.99037 11.7752 2.99037 11.7752 85.3555" fill="#FFFFFF" fill-rule="nonzero" fill-opacity="1" transform="matrix(1.00329 0 0 -1 321 1331.96)"/><path d="M14.1067 83.0974 130.701 83.0974 130.701 5.36759 14.1067 5.36759 14.1067 83.0974" fill="#264CA4" fill-rule="nonzero" fill-opacity="1" transform="matrix(1.00329 0 0 -1 321 1331.96)"/><path d="M69.9193 66.1614 72.3796 67.9567 74.8404 66.1614 73.904 69.0648 76.4027 70.8602 73.3226 70.8602 72.3796 73.799 71.4371 70.8573 68.3582 70.8602 70.8556 69.0648 69.9193 66.1614" fill="#FFFFFF" fill-rule="nonzero" fill-opacity="1" transform="matrix(1.00329 0 0 -1 321 1331.96)"/><path d="M57.1875 62.7408 59.6479 64.5361 62.1066 62.7408 61.1719 65.6442 63.6693 67.4396 60.5888 67.4396 59.6463 70.3817 58.7037 67.4367 55.6249 67.4396 58.1223 65.6442 57.1875 62.7408" fill="#FFFFFF" fill-rule="nonzero" fill-opacity="1" transform="matrix(1.00329 0 0 -1 321 1331.96)"/><path d="M50.3319 61.0451 49.3893 58.0996 46.3105 58.1025 48.8079 56.3072 47.8715 53.4037 50.3319 55.1991 52.7922 53.4037 51.8559 56.3072 54.3533 58.1025 51.2744 58.1025 50.3319 61.0451" fill="#FFFFFF" fill-rule="nonzero" fill-opacity="1" transform="matrix(1.00329 0 0 -1 321 1331.96)"/><path d="M46.9145 42.4834 49.3733 40.688 48.4385 43.5915 50.936 45.3868 47.8571 45.3868 46.9145 48.329 45.9716 45.3807 42.8919 45.3868 45.3906 43.5915 44.4542 40.688 46.9145 42.4834" fill="#FFFFFF" fill-rule="nonzero" fill-opacity="1" transform="matrix(1.00329 0 0 -1 321 1331.96)"/><path d="M51.2744 32.6325 50.3319 35.5746 49.3893 32.6296 46.3105 32.6325 48.8079 30.8371 47.8715 27.9337 50.3319 29.7324 52.7922 27.9337 51.8559 30.8371 54.3533 32.6325 51.2744 32.6325" fill="#FFFFFF" fill-rule="nonzero" fill-opacity="1" transform="matrix(1.00329 0 0 -1 321 1331.96)"/><path d="M60.6082 23.2987 59.6656 26.238 58.7247 23.2958 55.6442 23.2987 58.1416 21.5038 57.2069 18.5999 59.6673 20.3957 62.126 18.5999 61.1912 21.5038 63.6883 23.2987 60.6082 23.2987" fill="#FFFFFF" fill-rule="nonzero" fill-opacity="1" transform="matrix(1.00329 0 0 -1 321 1331.96)"/><path d="M73.3242 19.9173 72.3813 22.8589 71.4404 19.9139 68.3599 19.9173 70.8573 18.1214 69.9226 15.218 72.3829 17.0135 74.8416 15.218 73.9057 18.1214 76.4043 19.9173 73.3242 19.9173" fill="#FFFFFF" fill-rule="nonzero" fill-opacity="1" transform="matrix(1.00329 0 0 -1 321 1331.96)"/><path d="M86.0399 23.2987 85.099 26.238 84.1548 23.2958 81.0776 23.2987 83.5734 21.5038 82.6386 18.5999 85.099 20.3957 87.559 18.5999 86.6213 21.5038 89.12 23.2987 86.0399 23.2987" fill="#FFFFFF" fill-rule="nonzero" fill-opacity="1" transform="matrix(1.00329 0 0 -1 321 1331.96)"/><path d="M95.3769 32.6325 94.4327 35.5746 93.4881 32.6296 90.4113 32.6325 92.91 30.8371 91.9724 27.9337 94.4327 29.7324 96.8927 27.9337 95.9551 30.8371 98.4537 32.6325 95.3769 32.6325" fill="#FFFFFF" fill-rule="nonzero" fill-opacity="1" transform="matrix(1.00329 0 0 -1 321 1331.96)"/><path d="M101.836 45.4223 98.7556 45.4223 97.8114 48.3644 96.8705 45.419 93.79 45.4223 96.2886 43.6269 95.3543 40.7234 97.8114 42.5221 100.271 40.7234 99.337 43.6269 101.836 45.4223" fill="#FFFFFF" fill-rule="nonzero" fill-opacity="1" transform="matrix(1.00329 0 0 -1 321 1331.96)"/><path d="M91.9724 53.4424 94.4327 55.2378 96.8927 53.4424 95.9551 56.3459 98.4537 58.1379 95.3769 58.1379 94.4327 61.0801 93.4881 58.1346 90.4113 58.1379 92.91 56.3459 91.9724 53.4424" fill="#FFFFFF" fill-rule="nonzero" fill-opacity="1" transform="matrix(1.00329 0 0 -1 321 1331.96)"/><path d="M85.1344 70.3784 84.1931 67.4334 81.113 67.4396 83.6084 65.6409 82.674 62.7375 85.1373 64.5361 87.5944 62.7375 86.66 65.6409 89.1587 67.4396 86.0753 67.4396 85.1344 70.3784" fill="#FFFFFF" fill-rule="nonzero" fill-opacity="1" transform="matrix(1.00329 0 0 -1 321 1331.96)"/></g></g></g></g></g></svg>